HIERARCHY
ROOT Hips
{
	OFFSET 0.00000 0.00000 0.00000
	CHANNELS 6 Xposition Yposition Zposition Zrotation Yrotation Xrotation 
	JOINT LHipJoint
	{
		OFFSET 0 0 0
		CHANNELS 3 Zrotation Yrotation Xrotation
		JOINT LeftHip
		{
			OFFSET 1.39187 -1.60231 0.69152
			CHANNELS 3 Zrotation Yrotation Xrotation
			JOINT LeftKnee
			{
				OFFSET 2.43314 -6.68499 0.00000
				CHANNELS 3 Zrotation Yrotation Xrotation
				JOINT LeftAnkle
				{
					OFFSET 2.32059 -6.37578 0.00000
					CHANNELS 3 Zrotation Yrotation Xrotation
					JOINT LeftToe
					{
						OFFSET 0.23021 -0.63250 1.71305
						CHANNELS 3 Zrotation Yrotation Xrotation
						End Site
						{
							OFFSET 0.00000 -0.00000 0.91647
						}
					}
				}
			}
		}
	}
	JOINT RHipJoint
	{
		OFFSET 0 0 0
		CHANNELS 3 Zrotation Yrotation Xrotation
		JOINT RightHip
		{
			OFFSET -1.19407 -1.60231 0.69152
			CHANNELS 3 Zrotation Yrotation Xrotation
			JOINT RightKnee
			{
				OFFSET -2.44411 -6.71513 0.00000
				CHANNELS 3 Zrotation Yrotation Xrotation
				JOINT RightAnkle
				{
					OFFSET -2.31924 -6.37207 0.00000
					CHANNELS 3 Zrotation Yrotation Xrotation
					JOINT RightToe
					{
						OFFSET -0.19473 -0.53502 1.87724
						CHANNELS 3 Zrotation Yrotation Xrotation
						End Site
						{
							OFFSET -0.00000 -0.00000 0.98293
						}
					}
				}
			}
		}
	}
	JOINT lowerback
	{
		OFFSET 0 0 0
		CHANNELS 3 Zrotation Yrotation Xrotation
		JOINT Chest
		{
			OFFSET -0.01120 1.87307 0.09613
			CHANNELS 3 Zrotation Yrotation Xrotation
			JOINT Chest2
			{
				OFFSET 0.01099 1.87818 0.04834
				CHANNELS 3 Zrotation Yrotation Xrotation
				JOINT lowerneck
				{
					OFFSET 0 0 0
					CHANNELS 3 Zrotation Yrotation Xrotation
					JOINT Neck
					{
						OFFSET 0.01702 1.40324 -0.12579
						CHANNELS 3 Zrotation Yrotation Xrotation
						JOINT Head
						{
							OFFSET -0.04239 1.38587 -0.01614
							CHANNELS 3 Zrotation Yrotation Xrotation
							End Site
							{
								OFFSET -0.02510 1.47031 -0.00154
							}
						}
					}
				}
				JOINT LeftCollar
				{
					OFFSET 0 0 0
					CHANNELS 3 Zrotation Yrotation Xrotation
					JOINT LeftShoulder
					{
						OFFSET 2.95699 0.62343 0.11653
CHANNELS 3 Zrotation Xrotation Yrotation
						JOINT LeftElbow
						{
OFFSET 0 -4.683820 -0.000000
CHANNELS 3 Zrotation Xrotation Yrotation
							JOINT LeftWrist
							{
OFFSET 0 -2.981240 -0.000000
CHANNELS 3 Zrotation Xrotation Yrotation
								JOINT lhand
								{
									OFFSET 0 0 0
CHANNELS 3 Zrotation Xrotation Yrotation
									JOINT LFingers
									{
OFFSET 0 -0.707590 0.000000
CHANNELS 3 Zrotation Xrotation Yrotation
										End Site
										{
OFFSET 0 -0.570480 0.000000
										}
									}
								}
								JOINT LThumb
								{
OFFSET 0 0.000000 0.000000
CHANNELS 3 Zrotation Xrotation Yrotation
									End Site
									{
OFFSET 0 -0.579190 0.579190
									}
								}
							}
						}
					}
				}
				JOINT RightCollar
				{
					OFFSET 0 0 0
					CHANNELS 3 Zrotation Yrotation Xrotation
					JOINT RightShoulder
					{
						OFFSET -2.99027 0.88714 -0.02793
CHANNELS 3 Zrotation Xrotation Yrotation
						JOINT RightElbow
						{
OFFSET 0 -4.758760 -0.000000
CHANNELS 3 Zrotation Xrotation Yrotation
							JOINT RightWrist
							{
OFFSET 0 -2.932930 -0.000000
CHANNELS 3 Zrotation Xrotation Yrotation
								JOINT rhand
								{
									OFFSET 0 0 0
CHANNELS 3 Zrotation Xrotation Yrotation
									JOINT RFingers
									{
OFFSET 0 -0.831750 0.000000
CHANNELS 3 Zrotation Xrotation Yrotation
										End Site
										{
OFFSET 0 -0.670580 0.000000
										}
									}
								}
								JOINT RThumb
								{
OFFSET 0 0.000000 0.000000
CHANNELS 3 Zrotation Xrotation Yrotation
									End Site
									{
OFFSET 0 -0.680820 0.680820
									}
								}
							}
						}
					}
				}
			}
		}
	}
}
MOTION
Frames: 5
Frame Time: 0.008333333333333333
-20.959200 16.432200 2.807600 -179.593000 6.763400 -166.750000 0.000000 0.000000 0.000000 -14.533200 -20.501200 -16.722600 2.019100 8.905700 25.500700 1.435200 -2.102500 -22.065500 0.008900 -0.610300 -1.677000 0.000000 0.000000 0.000000 16.689700 14.493900 -12.167900 -1.394100 -7.469800 21.115000 1.163900 -20.109500 -15.648500 -0.239900 3.152100 -8.702400 -4.308600 -0.633100 -13.898900 0.885600 0.207900 -4.312000 3.411100 0.319000 3.231800 -3.229600 1.286200 5.927300 5.416700 1.813300 -4.409400 2.255100 0.813400 -2.547300 0.000000 0.000000 0.000000 -0.682600 1.750200 -50.354300 13.734300 -22.353600 2.726200 -35.953000 6.957500 -29.633400 0.000000 0.000000 0.000000 -7.125000 0.000000 0.000000 -62.382200 49.590000 10.943800 0.000000 0.000000 0.000000 2.527100 3.444000 38.765000 -12.883300 -21.116000 -2.411100 -1.504500 15.487900 -5.635100 0.000000 0.000000 0.000000 7.125000 0.000000 -0.000000 18.514200 24.320800 9.742900
-20.960306 16.432053 2.802035 -179.498953 6.738015 -166.733836 0.000000 0.000000 0.000000 -14.435716 -20.608008 -16.682644 2.026561 8.921214 25.549025 1.437963 -1.981532 -22.116188 0.011626 -0.696067 -1.912873 0.000000 0.000000 0.000000 16.803462 14.384055 -12.151366 -1.383335 -7.442059 21.031869 1.156729 -20.069864 -15.663349 -0.230599 3.090521 -8.530913 -4.247474 -0.622142 -13.939631 0.952606 0.216001 -4.325317 3.448875 0.324629 3.239207 -3.518571 1.232149 5.999114 5.626805 1.737030 -4.598885 2.384668 0.772812 -2.629846 0.000000 0.000000 0.000000 -0.919670 1.584157 -50.211248 13.550269 -22.088095 2.656656 -36.109781 6.674336 -30.002296 0.000000 0.000000 0.000000 -7.125000 0.000000 0.000000 -62.861835 49.799135 11.569906 0.000000 0.000000 0.000000 2.465266 3.564326 38.863933 -13.058651 -21.373135 -2.474611 -2.460624 15.147187 -4.976295 0.000000 0.000000 0.000000 7.125000 0.000000 0.000000 17.922926 24.950733 9.122326
-20.954462 16.431127 2.796744 -179.423272 6.696755 -166.726927 0.000000 0.000000 0.000000 -14.348961 -20.442873 -16.747617 2.030555 8.929493 25.574997 1.445727 -2.122672 -22.143771 0.011607 -0.695999 -1.912715 0.000000 0.000000 0.000000 16.915512 14.746255 -11.942933 -1.374587 -7.419400 20.964066 1.222565 -20.453246 -15.597471 -0.239632 3.149327 -8.694838 -4.246052 -0.688743 -13.978401 1.021372 0.127335 -4.323708 3.506498 0.280554 3.269435 -3.620691 1.264689 6.452988 5.705453 1.806623 -5.442425 2.438815 0.797688 -3.008787 0.000000 0.000000 0.000000 -1.111867 1.451359 -49.940734 13.390723 -21.856974 2.596967 -35.869977 6.577623 -30.516133 0.000000 0.000000 0.000000 -7.125000 0.000000 0.000000 -63.252032 50.167641 12.507915 0.000000 0.000000 0.000000 2.432040 3.787801 38.876702 -13.398101 -21.867679 -2.599724 -2.564271 14.745093 -5.040512 0.000000 0.000000 0.000000 7.125000 0.000000 0.000000 17.839514 24.889855 9.101804
-20.955253 16.428275 2.795168 -179.376472 6.685872 -166.863404 0.000000 0.000000 0.000000 -14.359938 -20.177869 -16.665228 2.029549 8.927298 25.568068 1.455864 -2.398821 -22.159826 0.006677 -0.527780 -1.450364 0.000000 0.000000 0.000000 17.005738 14.829262 -11.694792 -1.372068 -7.412857 20.944447 1.242530 -20.586990 -15.641930 -0.273848 3.366086 -9.299565 -4.182888 -0.649692 -13.858520 0.977331 0.157275 -4.272614 3.427951 0.290058 3.255821 -3.610686 1.379793 7.020397 5.965881 2.025885 -6.382422 2.529497 0.889373 -3.459551 0.000000 0.000000 0.000000 -1.208451 1.231497 -49.432794 13.138314 -21.489538 2.503765 -35.810396 7.148053 -30.410321 0.000000 0.000000 0.000000 -7.125000 0.000000 0.000000 -63.103490 50.111342 12.328005 0.000000 0.000000 0.000000 2.547627 3.918017 38.699017 -13.797048 -22.443689 -2.750235 -2.898103 14.255304 -4.880508 0.000000 0.000000 0.000000 7.125000 0.000000 0.000000 17.621274 25.043601 8.913095
-20.960857 16.430435 2.788309 -179.390508 6.747209 -166.824342 0.000000 0.000000 0.000000 -14.390479 -20.557110 -16.541664 2.030665 8.929698 25.575560 1.457029 -2.029714 -22.255402 0.003611 -0.377990 -1.038625 0.000000 0.000000 0.000000 16.949965 14.701327 -11.771264 -1.367727 -7.401751 20.911220 1.211635 -20.396816 -15.631345 -0.238058 3.138048 -8.663564 -4.075329 -0.659637 -13.943989 0.907162 0.139297 -4.283191 3.290899 0.281763 3.293408 -3.687220 1.402863 7.236610 6.135066 2.093921 -6.922140 2.607116 0.916204 -3.699849 0.000000 0.000000 0.000000 -1.160048 1.189673 -49.034949 13.028361 -21.328707 2.463586 -35.586502 7.637906 -30.177860 0.000000 0.000000 0.000000 -7.125000 0.000000 0.000000 -62.720416 50.003243 11.946818 0.000000 0.000000 0.000000 2.701626 4.138269 38.657287 -14.227794 -23.059227 -2.916859 -2.776364 13.499331 -5.107979 0.000000 0.000000 0.000000 7.125000 0.000000 0.000000 17.677589 24.826227 9.038673
